<?xml version="1.0" encoding="utf-8"?>
<!-- Generator: Adobe Illustrator 26.4.1, SVG Export Plug-In . SVG Version: 6.00 Build 0)  -->
<svg version="1.1" id="Green" xmlns="http://www.w3.org/2000/svg" xmlns:xlink="http://www.w3.org/1999/xlink" x="0px" y="0px"
	 viewBox="0 0 33 33" style="enable-background:new 0 0 33 33;" xml:space="preserve">
<style type="text/css">
	.st0{fill:#649F42;}
</style>
<g>
	<path class="st0" d="M32.2,16.3c0-3-2.2-5.2-5.3-5.2c-0.6,0-1.1,0-1.6,0.1c0.3-0.4,0.6-0.8,0.9-1.3c1.6-2.7,0.8-5.6-1.9-7.2
		c-2.6-1.5-5.6-0.7-7.1,2c-0.3,0.5-0.5,1-0.7,1.4c-0.2-0.4-0.4-0.9-0.7-1.4c-1.6-2.7-4.5-3.5-7.1-2C6,4.3,5.2,7.2,6.8,9.9
		c0.3,0.5,0.6,1,0.9,1.3c-0.4-0.1-1-0.1-1.6-0.1c-3.1,0-5.3,2.2-5.3,5.2c0,3,2.2,5.2,5.3,5.2c1.7,0,3.4-0.5,5.2-1.3L10.6,19
		c-1.4,0.6-2.9,0.9-4.4,0.9c-2.2,0-3.7-1.4-3.7-3.5c0-2.2,1.5-3.5,3.7-3.5c1.5,0,2.9,0.3,4.3,0.9l0.7-1.2c-1.2-1-2.2-2-2.9-3.3
		c-1.1-1.9-0.7-3.9,1.2-5c1.9-1.1,3.8-0.5,4.9,1.4c0.8,1.3,1.2,2.7,1.4,4.2h1.4c0.2-1.5,0.7-2.9,1.4-4.2c1.1-1.9,3-2.5,4.9-1.4
		c1.9,1.1,2.3,3,1.2,5c-0.8,1.3-1.8,2.4-3,3.4l0.7,1.2c1.4-0.6,2.9-0.9,4.4-0.9c2.2,0,3.7,1.4,3.7,3.5c0,2.2-1.5,3.5-3.7,3.5
		c-1.5,0-3-0.3-4.4-0.9l-0.7,1.2c1.2,1,2.3,2.1,3,3.4c1.1,1.9,0.7,3.9-1.2,5c-1.9,1.1-3.8,0.5-4.9-1.4c-0.8-1.3-1.2-2.8-1.4-4.3
		h-1.4c0.2,2,0.6,3.7,1.5,5.2c1.6,2.7,4.5,3.5,7.1,2c2.6-1.5,3.4-4.5,1.9-7.2c-0.3-0.5-0.6-1-0.9-1.3c0.4,0.1,1,0.1,1.6,0.1
		C30,21.6,32.2,19.4,32.2,16.3z"/>
	<path class="st0" d="M2.7,29l0.9,2c8-4.7,12.2-10.1,15-16.7l-1.1-0.5C14.4,20.3,10.4,25,2.7,29z"/>
</g>
</svg>
